HIERARCHY
ROOT Hips
{
	OFFSET 0.000000 0.000000 0.000000
	CHANNELS 6 Xposition Yposition Zposition Xrotation Yrotation Zrotation
	JOINT LeftUpLeg_virtual
	{
		OFFSET 0.000000 0.000000 0.000000
		CHANNELS 3 Xrotation Yrotation Zrotation
		JOINT LeftUpLeg
		{
			OFFSET 10.205400 -3.823500 0.155100
			CHANNELS 3 Xrotation Yrotation Zrotation
			JOINT LeftLeg
			{
				OFFSET 0.708757 -12.982077 0.567790
				CHANNELS 3 Xrotation Yrotation Zrotation
				JOINT LeftFoot
				{
					OFFSET -0.708756 -10.717838 -2.184338
					CHANNELS 3 Xrotation Yrotation Zrotation
					JOINT LeftToeBase
					{
						OFFSET 0.108149 -7.191104 7.560241
						CHANNELS 3 Xrotation Yrotation Zrotation
						JOINT LeftToe_End
						{
							OFFSET 0.070230 0.081724 4.490308
							CHANNELS 3 Xrotation Yrotation Zrotation
							End Site
							{
								OFFSET 0 0 0
							}
						}
					}
				}
			}
		}
	}
	JOINT RightUpLeg_virtual
	{
		OFFSET 0.000000 0.000000 0.000000
		CHANNELS 3 Xrotation Yrotation Zrotation
		JOINT RightUpLeg
		{
			OFFSET -10.205400 -3.823500 0.005500
			CHANNELS 3 Xrotation Yrotation Zrotation
			JOINT RightLeg
			{
				OFFSET -0.708756 -12.982134 0.610632
				CHANNELS 3 Xrotation Yrotation Zrotation
				JOINT RightFoot
				{
					OFFSET 0.708754 -10.717769 -1.945823
					CHANNELS 3 Xrotation Yrotation Zrotation
					JOINT RightToeBase
					{
						OFFSET -0.108140 -7.191069 7.372968
						CHANNELS 3 Xrotation Yrotation Zrotation
						JOINT RightToe_End
						{
							OFFSET -0.070227 0.081735 4.479403
							CHANNELS 3 Xrotation Yrotation Zrotation
							End Site
							{
								OFFSET 0 0 0
							}
						}
					}
				}
			}
		}
	}
	JOINT Spine_virtual
	{
		OFFSET 0.000000 0.000000 0.000000
		CHANNELS 3 Xrotation Yrotation Zrotation
		JOINT Spine
		{
			OFFSET 0.000000 6.876099 0.125700
			CHANNELS 3 Xrotation Yrotation Zrotation
			JOINT Spine1
			{
				OFFSET 0.000000 5.730043 0.104720
				CHANNELS 3 Xrotation Yrotation Zrotation
				JOINT Spine1_split
				{
					OFFSET 0.000000 5.730043 0.104720
					CHANNELS 3 Xrotation Yrotation Zrotation
					JOINT Spine2
					{
						OFFSET 0.000000 5.730043 0.104720
						CHANNELS 3 Xrotation Yrotation Zrotation
						JOINT Neck_virtual
						{
							OFFSET 0.000000 0.000000 0.000000
							CHANNELS 3 Xrotation Yrotation Zrotation
							JOINT Neck
							{
								OFFSET 0.000000 10.314075 0.188496
								CHANNELS 3 Xrotation Yrotation Zrotation
								JOINT Head
								{
									OFFSET 0.000000 7.643700 -2.377400
									CHANNELS 3 Xrotation Yrotation Zrotation
									JOINT HeadTop_End
									{
										OFFSET 0.000000 43.788605 -13.619600
										CHANNELS 3 Xrotation Yrotation Zrotation
										End Site
										{
											OFFSET 0 0 0
										}
									}
								}
							}
						}
						JOINT LeftShoulder_virtual
						{
							OFFSET 0.000000 0.000000 0.000000
							CHANNELS 3 Xrotation Yrotation Zrotation
							JOINT LeftShoulder
							{
								OFFSET 2.196100 4.412489 0.087492
								CHANNELS 3 Xrotation Yrotation Zrotation
								JOINT LeftShoulder_split
								{
									OFFSET 2.196100 4.412489 0.087492
									CHANNELS 3 Xrotation Yrotation Zrotation
									JOINT LeftArm
									{
										OFFSET 8.771219 -2.981674 -0.026999
										CHANNELS 3 Xrotation Yrotation Zrotation
										JOINT LeftForeArm
										{
											OFFSET 8.512804 0.000000 -0.000000
											CHANNELS 3 Xrotation Yrotation Zrotation
											JOINT LeftHand
											{
												OFFSET 18.484802 0.000000 -0.000000
												CHANNELS 3 Xrotation Yrotation Zrotation
												End Site
												{
													OFFSET 0 0 0
												}
											}
										}
									}
								}
							}
						}
						JOINT RightShoulder_virtual
						{
							OFFSET 0.000000 0.000000 0.000000
							CHANNELS 3 Xrotation Yrotation Zrotation
							JOINT RightShoulder
							{
								OFFSET -2.196100 4.412496 0.070690
								CHANNELS 3 Xrotation Yrotation Zrotation
								JOINT RightShoulder_split
								{
									OFFSET -2.196100 4.412496 0.070690
									CHANNELS 3 Xrotation Yrotation Zrotation
									JOINT RightArm
									{
										OFFSET -8.771282 -2.981682 -0.094208
										CHANNELS 3 Xrotation Yrotation Zrotation
										JOINT RightForeArm
										{
											OFFSET -8.494598 0.000000 0.000000
											CHANNELS 3 Xrotation Yrotation Zrotation
											JOINT RightHand
											{
												OFFSET -18.483803 0.000000 0.000001
												CHANNELS 3 Xrotation Yrotation Zrotation
												End Site
												{
													OFFSET 0 0 0
												}
											}
										}
									}
								}
							}
						}
					}
				}
			}
		}
	}
}
MOTION
Frames: 5
Frame Time: 0.03333333
-0.142095 30.287167 0.572315 0.000000 0.000000 0.000000 -4.183990 -15.233905 -2.089968 -33.119734 17.472249 13.172074 51.999794 -0.709427 12.200577 -23.915718 4.591797 -10.510270 -0.078252 -0.058439 -1.091149 0.000000 0.000000 0.000000 -4.900013 -13.542651 -1.791332 -23.992291 -22.828709 -12.454454 49.598631 -5.407477 -19.065182 -21.994985 -3.672809 15.022134 -2.894819 1.101162 -0.845075 0.000000 0.000000 0.000000 -3.138850 -17.035125 -2.049162 4.366039 2.735077 2.222237 2.841241 2.020527 -0.040980 1.648923 -0.619197 0.176025 0.000000 0.000000 0.000000 2.806351 1.775061 -0.016945 1.065552 -0.192255 4.536674 0.240780 9.710573 1.318627 0.000000 0.000000 0.000000 2.729625 1.963810 -0.225976 -0.029016 -4.027114 17.146130 -1.959291 -0.051055 -0.541695 -66.889764 -43.358126 -62.490371 -0.945892 -34.266632 0.741356 0.000000 0.000000 0.000000 3.229857 1.945719 -0.079911 -0.352664 -3.430939 -5.201545 0.882150 0.881735 0.616277 -104.044442 58.808557 95.588470 -1.496942 29.815220 0.421422 0.000000 0.000000 0.000000 
-0.151371 30.266630 0.569515 0.000000 0.000000 0.000000 -4.122827 -15.268703 -2.043651 -33.193408 17.522775 13.050659 51.901972 -0.721151 12.245651 -23.829456 4.549953 -10.566412 -0.105745 -0.036145 -1.112255 0.000000 0.000000 0.000000 -4.896935 -13.520513 -1.751193 -23.963049 -22.892103 -12.523141 49.902332 -5.482674 -18.989048 -22.261934 -3.685311 15.050911 -2.420052 1.078480 -0.942100 0.000000 0.000000 0.000000 -3.149819 -16.917433 -2.104592 4.372918 2.706566 2.155709 2.856448 2.013822 -0.072895 1.541548 -0.316670 0.049200 0.000000 0.000000 0.000000 2.729917 1.754036 -0.042380 0.919525 -0.313752 4.572705 0.442869 9.748783 1.309044 0.000000 0.000000 0.000000 2.741699 1.943059 -0.240329 -0.083252 -3.883349 17.065545 -1.964510 -0.048943 -0.433779 -66.812712 -43.571013 -62.579498 -0.899095 -34.555611 0.801421 0.000000 0.000000 0.000000 3.293408 1.947610 -0.098033 -0.330576 -3.339011 -5.298154 0.875657 0.837182 0.595498 -104.037967 59.327255 95.759601 -1.368451 29.547822 0.386470 0.000000 0.000000 0.000000 
-0.152696 30.250719 0.565609 0.000000 0.000000 0.000000 -4.029023 -15.383896 -1.952864 -33.295021 17.618435 12.868984 51.804003 -0.716687 12.392299 -23.563219 4.452390 -10.762470 -0.074183 0.001272 -1.177920 0.000000 0.000000 0.000000 -4.873032 -13.696452 -1.669299 -23.987341 -22.924927 -12.606505 50.034735 -5.577191 -18.909638 -22.277941 -3.749544 15.128396 -2.321471 0.976460 -1.050130 0.000000 0.000000 0.000000 -3.183603 -16.789595 -2.136924 4.295709 2.640792 2.032753 2.809183 2.046072 -0.117196 1.311232 -0.316074 -0.068317 0.000000 0.000000 0.000000 2.679553 1.778435 -0.090487 0.809471 -0.515222 4.774988 0.868337 9.599257 1.477860 0.000000 0.000000 0.000000 2.740753 1.964661 -0.276195 -0.166434 -3.591988 16.898233 -1.878423 -0.041144 -0.422559 -66.602076 -44.050762 -62.616565 -0.940397 -35.028048 0.748036 0.000000 0.000000 0.000000 3.323643 1.983353 -0.129333 -0.260397 -3.115774 -5.454502 0.685608 0.764853 0.402212 -103.806533 59.987345 96.058613 -1.203086 29.348298 0.309527 0.000000 0.000000 0.000000 
-0.149371 30.248383 0.563629 0.000000 0.000000 0.000000 -3.913881 -15.612844 -1.850504 -33.409461 17.760818 12.734954 51.662987 -0.678182 12.594160 -23.230597 4.336878 -10.994630 0.008020 0.052808 -1.263558 0.000000 0.000000 0.000000 -4.769640 -14.050690 -1.570482 -24.025602 -22.884947 -12.625432 49.942842 -5.652719 -18.859636 -22.031586 -3.823233 15.205835 -2.608379 0.810780 -1.075419 0.000000 0.000000 0.000000 -3.207964 -16.768924 -2.137653 4.136673 2.542488 1.901014 2.706552 2.090747 -0.166772 1.006083 -0.572558 -0.030531 0.000000 0.000000 0.000000 2.649904 1.831430 -0.147665 0.739779 -0.752807 5.089481 1.368954 9.369630 1.770394 0.000000 0.000000 0.000000 2.713113 2.011808 -0.328438 -0.265449 -3.196723 16.629977 -1.678143 -0.069041 -0.497401 -66.333021 -44.802411 -62.718875 -1.021616 -35.459941 0.588396 0.000000 0.000000 0.000000 3.313049 2.033122 -0.166664 -0.150676 -2.804008 -5.669637 0.490576 0.652576 0.206964 -103.384482 60.616010 96.417382 -1.029285 29.306586 0.207513 0.000000 0.000000 0.000000 
-0.147849 30.255123 0.566675 0.000000 0.000000 0.000000 -3.817047 -15.949786 -1.776442 -33.549684 17.916254 12.686593 51.531479 -0.592890 12.810916 -22.871771 4.256777 -11.151595 0.131274 0.115595 -1.342422 0.000000 0.000000 0.000000 -4.568089 -14.489903 -1.491255 -24.038692 -22.738567 -12.513064 49.719887 -5.756193 -18.851606 -21.695625 -3.881632 15.078478 -2.771200 0.608832 -0.942009 0.000000 0.000000 0.000000 -3.119515 -16.895947 -2.101635 3.925898 2.439232 1.796417 2.571831 2.125150 -0.211427 0.887469 -0.870504 0.080366 0.000000 0.000000 0.000000 2.625424 1.877607 -0.198530 0.691843 -0.975952 5.391990 1.755098 9.161400 2.104219 0.000000 0.000000 0.000000 2.650165 2.055166 -0.382331 -0.377177 -2.748602 16.312536 -1.588439 -0.094610 -0.653027 -66.111730 -45.762489 -62.928131 -1.067620 -35.775663 0.407455 0.000000 0.000000 0.000000 3.252023 2.071548 -0.200021 -0.021292 -2.446517 -5.924732 0.310720 0.505422 0.011905 -102.936073 61.066071 96.737984 -0.889130 29.420651 0.156377 0.000000 0.000000 0.000000 
